<?xml version="1.0" encoding="UTF-8"?><svg xmlns="http://www.w3.org/2000/svg" viewBox="0 0 595.28 841.89"><defs><style>.cls-1{fill:#edcca9;}.cls-2{fill:#f07f5e;}.cls-3{fill:#1f2345;}.cls-4{fill:#c2c1c1;}.cls-5{fill:#fff;stroke:#1d1d1b;stroke-miterlimit:10;}.cls-6{fill:#f9f0af;}</style></defs><g id="Laag_1"><g><path class="cls-3" d="M167.55,420.71h20.75l1,94.39h-20.75l-1-94.39Z"/><path class="cls-3" d="M195.56,420.71h58.85v17.7h-19.29l1,76.69h-20.75l-1-76.69h-18.81v-17.7Z"/><path class="cls-3" d="M318.03,441.25l-16.15,6.57c-2.44-7.79-7.92-11.69-14.42-11.69-3.04,0-5.45,.86-7.23,2.59s-1.66,3.75-1.66,6.05c0,2.67,1.05,4.81,3.15,6.4,2.1,1.59,6.49,3.68,13.17,6.26,6.09,2.26,10.87,4.49,14.35,6.71,3.48,2.21,6.29,5.22,8.44,9.02,2.14,3.8,3.22,8.22,3.22,13.24,0,8.81-3.03,16.03-9.09,21.68s-14.19,8.47-24.38,8.47c-17.1,0-28.03-8.64-32.78-25.93l18.12-5.19c2.21,9.5,7.26,14.24,15.14,14.24,3.6,0,6.51-.93,8.75-2.8,2.24-1.87,3.35-4.32,3.35-7.36,0-2.31-.78-4.37-2.35-6.19-1.57-1.82-5.16-3.75-10.79-5.77-7.24-2.58-12.63-4.92-16.18-7.02s-6.48-5.09-8.78-8.99c-2.31-3.9-3.46-8.33-3.46-13.31,0-8.48,1.73-15.43,7.19-20.85s12.69-8.13,21.68-8.13c16.41,0,26.65,7.33,30.7,21.99Z"/><path class="cls-3" d="M326.69,420.71h20.75l1,39.38,21.93-39.38h20.98l-22.7,34.71,25.71,59.68h-21.46l-16.61-43.46-7.85,11.37v32.09h-20.75l-1-94.39Z"/><path class="cls-3" d="M399.44,420.71h57.39v16.18h-36.65l1,21.92h28.49v16.18h-28.49v23.23h36.65v16.87h-57.39l-1-94.39Z"/><path class="cls-3" d="M459.97,420.71h22.85l14.32,34.41,13.24-34.41h20.26l-25.21,54.49v39.9h-20.75v-39.9l-24.72-54.49Z"/></g><path class="cls-3" d="M170.68,566.09l2.17-1.25,20.51-11.84-18.55-10.71h-35.58v-141.39c-3.15,.76-6.44,1.17-9.82,1.17-2.84,0-5.61-.29-8.28-.82v172.61h.24c-.16,.74-.24,1.52-.24,2.32,0,5.57,4.05,10.1,9.05,10.1s9.06-4.52,9.06-10.1c0-.8-.08-1.58-.24-2.32h.24v-7.76h31.46Z"/><polygon class="cls-3" points="168.71 577.34 168.71 528.45 211.05 552.89 168.71 577.34"/></g><g id="Laag_7"><circle class="cls-6" cx="129.4" cy="359.48" r="32.15"/></g><g id="Laag_5"><path class="cls-4" d="M169.11,292.44c-17.76,0-32.15,14.39-32.15,32.15,0,1.43,.1,2.84,.28,4.22,12.49,3.19,22.17,13.73,23.9,26.94,2.55,.65,5.22,1,7.97,1,17.76,0,32.15-14.39,32.15-32.15s-14.39-32.15-32.15-32.15Z"/></g><g id="Laag_6"><circle class="cls-1" cx="95.6" cy="324.31" r="32.15"/></g><g id="Laag_4"><path class="cls-2" d="M164.55,288.32c0,1.93-.17,3.82-.51,5.66-14.21,1.55-25.63,12.36-28.1,26.28-1.16,.14-2.35,.2-3.54,.2-17.76,0-32.15-14.39-32.15-32.15s14.39-32.15,32.15-32.15,32.15,14.39,32.15,32.15Z"/></g><g id="Laag_2"><path class="cls-3" d="M121.12,402.85c-19.2-3.45-33.63-18.85-33.63-39.18l12.36,.74c0,13.51,8.93,23.02,21.26,25.92,2.62,.63,5.39,.96,8.26,.96,3.45,0,6.77-.59,9.85-1.68,11.54-4.05,19.8-15.04,19.8-27.96,0-16.38-13.27-29.65-29.65-29.65v-12.28c23.16,0,41.93,18.77,41.93,41.93,0,19.76-13.67,36.33-32.08,40.77"/><path class="cls-3" d="M132.78,319.92c-16.37,0-29.65-13.27-29.65-29.65s13.27-29.65,29.65-29.65c13.63,0,25.87,11.23,29.33,23.77l11.85,.13c-3.7-19.37-20.72-36.17-41.17-36.17-23.16,0-41.93,18.77-41.93,41.93s18.77,41.93,41.93,41.93"/></g><g id="Laag_3"><path class="cls-5" d="M125.22,328.71s.63-3.22,.62-4.31,.11-3.56,.16-3.92"/><path class="cls-3" d="M135.22,338.01s1.66-4.24,1.89-5.56c.16-.94,.34-2.02,.47-3.05-3.23,19.95-20.53,35.18-41.39,35.18-23.16,0-41.93-18.77-41.93-41.93s18.77-41.93,41.93-41.93v12.28c-16.37,0-29.65,13.27-29.65,29.65s13.27,29.65,29.65,29.65,29.99-13.62,29.64-30.28c1.99-21.31,19.92-37.98,41.75-37.98,23.16,0,41.93,18.77,41.93,41.93s-18.77,41.93-41.93,41.93v-12.28c16.37,0,29.65-13.27,29.65-29.65s-13.27-29.65-29.65-29.65-29.65,13.27-29.65,29.65"/></g></svg>